<svg xmlns="http://www.w3.org/2000/svg" viewBox="0 0 320 240">
  <rect width="320" height="240" fill="#3D348B" rx="28" />
  <g transform="translate(160 130)">
    <polygon points="0,-70 20,-16 78,-16 32,18 48,72 0,42 -48,72 -32,18 -78,-16 -20,-16" fill="#FEE440" />
    <polygon points="0,-36 12,-10 42,-10 18,10 28,38 0,22 -28,38 -18,10 -42,-10 -12,-10" fill="#FADF63" />
  </g>
  <g fill="#FEE440" opacity="0.6">
    <circle cx="70" cy="60" r="12" />
    <circle cx="240" cy="50" r="8" />
    <circle cx="270" cy="110" r="10" />
    <circle cx="90" cy="190" r="6" />
    <circle cx="220" cy="190" r="7" />
  </g>
  <g fill="#FFF3B0" opacity="0.75">
    <circle cx="50" cy="120" r="6" />
    <circle cx="112" cy="58" r="8" />
    <circle cx="260" cy="150" r="6" />
  </g>
</svg>
