<svg xmlns="http://www.w3.org/2000/svg" viewBox="0 0 160 160" role="img" aria-labelledby="title desc">
  <title id="title">素朴な犬のイラスト</title>
  <desc id="desc">やさしい色合いの背景に、丸みのあるこげ茶色の犬が座っているイラスト。</desc>
  <rect width="160" height="160" rx="24" fill="#f7f2ec"/>
  <g transform="translate(20 28)">
    <path d="M48 12c-6 0-12 3.6-15.5 9.5-2.7-3-6.6-4.7-10.7-4.7-8 0-14.8 6.8-14.8 15.2 0 5.9 3.3 11 8.1 13.5-.4 1.8-.6 3.6-.6 5.5 0 16.7 13.8 30.3 30.8 30.3h8.8c17 0 30.8-13.6 30.8-30.3 0-1.9-.2-3.7-.6-5.5 4.8-2.5 8.1-7.6 8.1-13.5 0-8.4-6.8-15.2-14.8-15.2-4.1 0-8 1.7-10.7 4.7C60 15.6 54.2 12 48 12Z" fill="#6e4834"/>
    <path d="M34.6 37.2c-2.9 0-5.2 2.5-5.2 5.6 0 3.1 2.3 5.6 5.2 5.6s5.2-2.5 5.2-5.6c0-3.1-2.3-5.6-5.2-5.6Zm26.8 0c-2.9 0-5.2 2.5-5.2 5.6 0 3.1 2.3 5.6 5.2 5.6s5.2-2.5 5.2-5.6c0-3.1-2.3-5.6-5.2-5.6Z" fill="#fff"/>
    <path d="M34.6 40.8a2 2 0 0 0-2 2c0 1.1.9 2 2 2s2-.9 2-2a2 2 0 0 0-2-2Zm26.8 0a2 2 0 0 0-2 2c0 1.1.9 2 2 2s2-.9 2-2a2 2 0 0 0-2-2Z" fill="#2f1b12"/>
    <path d="M48 52.2c-4.8 0-8.7 3.3-8.7 7.5 0 2.3 1.1 4.4 3 5.8 2 1.5 4.7 2.3 7.7 2.3s5.7-.8 7.7-2.3c1.9-1.4 3-3.5 3-5.8 0-4.2-3.9-7.5-8.7-7.5Z" fill="#523120"/>
    <path d="M35.7 76.7c-3.7 0-6.7 3.2-6.7 7.1 0 1.7.6 3.2 1.6 4.5 1.8 2.2 4.8 3.7 8.1 3.7 4.9 0 8.9-3.4 8.9-7.6V78c0-.7-.6-1.3-1.3-1.3H35.7Zm24.7 0c-.7 0-1.3.6-1.3 1.3v6.4c0 4.2 4 7.6 8.9 7.6 3.3 0 6.3-1.5 8.1-3.7 1-1.3 1.6-2.8 1.6-4.5 0-3.9-3-7.1-6.7-7.1H60.4Z" fill="#6e4834"/>
  </g>
  <path d="M27 120c8 10 23 16 53 16s45-6 53-16" fill="none" stroke="#e3d5c9" stroke-width="6" stroke-linecap="round"/>
</svg>
