<svg xmlns="http://www.w3.org/2000/svg" viewBox="0 0 320 240">
  <rect width="320" height="240" fill="#C97A40" rx="28" />
  <g transform="translate(160 132)">
    <path d="M92 70c22 2 32 22 20 40s-34 26-56 20" fill="none" stroke="#FFE5D0" stroke-width="18" stroke-linecap="round" />
    <ellipse cx="0" cy="72" rx="88" ry="58" fill="#FFE5D0" />
    <ellipse cx="0" cy="74" rx="50" ry="40" fill="#F4C095" />
    <path d="M-92 34c-22 2-32 22-20 40s34 26 56 20" fill="none" stroke="#FFE5D0" stroke-width="18" stroke-linecap="round" />
    <g fill="#FFE5D0">
      <circle cx="0" cy="-8" r="58" />
      <path d="M-32-24c-26-26-60-14-54 20 4 22 16 36 26 44l30-24z" />
      <path d="M32-24c26-26 60-14 54 20-4 22-16 36-26 44l-30-24z" />
    </g>
    <path d="M-46-18c-18-16-46-6-40 18 4 18 14 28 26 34l24-26z" fill="#8C5A2B" />
    <path d="M46-18c18-16 46-6 40 18-4 18-14 28-26 34l-24-26z" fill="#8C5A2B" />
    <ellipse cx="0" cy="24" rx="40" ry="34" fill="#F4C095" />
    <ellipse cx="0" cy="34" rx="24" ry="18" fill="#3F2F1E" />
    <path d="M0 42c8 0 14 6 14 14s-8 14-14 14-14-6-14-14 6-14 14-14z" fill="#FFE5D0" />
    <g fill="#3F2F1E">
      <circle cx="-20" cy="-8" r="10" />
      <circle cx="20" cy="-8" r="10" />
    </g>
    <path d="M-18 10c8 8 28 8 36 0" fill="none" stroke="#3F2F1E" stroke-width="6" stroke-linecap="round" stroke-linejoin="round" />
    <g fill="#8C5A2B">
      <circle cx="-34" cy="18" r="12" />
      <circle cx="34" cy="18" r="12" />
    </g>
    <path d="M-72 56c12 18 30 26 72 26s60-8 72-26" fill="none" stroke="#3F2F1E" stroke-width="6" stroke-linecap="round" />
  </g>
  <circle cx="78" cy="62" r="16" fill="#FFEAD7" opacity="0.6" />
  <circle cx="94" cy="50" r="10" fill="#FFEAD7" opacity="0.4" />
</svg>
