<svg xmlns="http://www.w3.org/2000/svg" viewBox="0 0 320 240">
  <rect width="320" height="240" fill="#457B9D" rx="28" />
  <g transform="translate(160 140)">
    <ellipse cx="0" cy="0" rx="96" ry="68" fill="#2A9D8F" />
    <path d="M0-52c-36 0-72 24-72 56s36 56 72 56 72-24 72-56-36-56-72-56z" fill="#219080" />
    <g fill="none" stroke="#1B7B6B" stroke-width="8" stroke-linecap="round">
      <path d="M-60-20h120" />
      <path d="M-60 12h120" />
      <path d="M0-52v112" />
      <path d="M-36-36v80" />
      <path d="M36-36v80" />
    </g>
    <ellipse cx="-110" cy="-6" rx="28" ry="20" fill="#2A9D8F" />
    <ellipse cx="110" cy="-6" rx="28" ry="20" fill="#2A9D8F" />
    <ellipse cx="-64" cy="56" rx="18" ry="30" fill="#2A9D8F" />
    <ellipse cx="64" cy="56" rx="18" ry="30" fill="#2A9D8F" />
    <g transform="translate(-120 -20)">
      <circle cx="0" cy="0" r="22" fill="#2A9D8F" />
      <ellipse cx="-6" cy="-4" rx="6" ry="8" fill="#fff" opacity="0.9" />
      <ellipse cx="10" cy="-4" rx="6" ry="8" fill="#fff" opacity="0.9" />
      <circle cx="-6" cy="-4" r="3.5" fill="#1B4F4A" />
      <circle cx="10" cy="-4" r="3.5" fill="#1B4F4A" />
      <path d="M-4 6c4 6 12 6 16 0" fill="none" stroke="#1B4F4A" stroke-width="3.5" stroke-linecap="round" />
    </g>
  </g>
  <circle cx="70" cy="60" r="12" fill="#F1FAEE" opacity="0.7" />
  <circle cx="90" cy="50" r="8" fill="#F1FAEE" opacity="0.5" />
</svg>
