<svg xmlns="http://www.w3.org/2000/svg" viewBox="0 0 320 240">
  <rect width="320" height="240" fill="#F4A261" rx="28" />
  <g transform="translate(160 130)">
    <circle cx="0" cy="0" r="78" fill="#8D5524" />
    <g fill="#8D5524">
      <circle cx="-58" cy="-58" r="28" />
      <circle cx="58" cy="-58" r="28" />
    </g>
    <circle cx="0" cy="20" r="44" fill="#D9A066" />
    <ellipse cx="-28" cy="-10" rx="14" ry="18" fill="#FFF" opacity="0.95" />
    <ellipse cx="28" cy="-10" rx="14" ry="18" fill="#FFF" opacity="0.95" />
    <circle cx="-28" cy="-10" r="6" fill="#3C2F2F" />
    <circle cx="28" cy="-10" r="6" fill="#3C2F2F" />
    <path d="M0-6c12 0 18 10 18 20s-6 20-18 20-18-10-18-20 6-20 18-20z" fill="#5B3B1F" />
    <circle cx="0" cy="10" r="10" fill="#FFF" opacity="0.8" />
    <path d="M-20 28c12 18 48 18 60 0" fill="none" stroke="#5B3B1F" stroke-width="8" stroke-linecap="round" />
    <circle cx="-46" cy="40" r="12" fill="#8D5524" />
    <circle cx="46" cy="40" r="12" fill="#8D5524" />
  </g>
  <circle cx="260" cy="60" r="14" fill="#FDEAC1" opacity="0.6" />
  <circle cx="250" cy="48" r="8" fill="#FDEAC1" opacity="0.45" />
</svg>
