<svg xmlns="http://www.w3.org/2000/svg" viewBox="0 0 320 240">
  <rect width="320" height="240" fill="#2D6A4F" rx="28" />
  <g transform="translate(160 132)">
    <ellipse cx="-24" cy="0" rx="42" ry="48" fill="#74C69D" />
    <ellipse cx="24" cy="0" rx="42" ry="48" fill="#52B788" />
    <circle cx="-56" cy="-48" r="18" fill="#40916C" />
    <circle cx="56" cy="-48" r="18" fill="#40916C" />
    <ellipse cx="-24" cy="-52" rx="22" ry="18" fill="#95D5B2" />
    <ellipse cx="24" cy="-52" rx="22" ry="18" fill="#95D5B2" />
    <g fill="#1B4332">
      <circle cx="-32" cy="-54" r="4" />
      <circle cx="32" cy="-54" r="4" />
    </g>
    <path d="M0-52c0 16 18 28 18 44s-18 30-18 46" fill="none" stroke="#1B4332" stroke-width="6" stroke-linecap="round" />
    <path d="M0-52c0 16-18 28-18 44s18 30 18 46" fill="none" stroke="#1B4332" stroke-width="6" stroke-linecap="round" />
    <path d="M-58-66c-18-24-40-24-40-4 0 16 24 24 40 22" fill="none" stroke="#40916C" stroke-width="6" stroke-linecap="round" />
    <path d="M58-66c18-24 40-24 40-4 0 16-24 24-40 22" fill="none" stroke="#40916C" stroke-width="6" stroke-linecap="round" />
    <g fill="#1B4332">
      <circle cx="0" cy="-12" r="6" />
      <circle cx="0" cy="12" r="6" />
      <circle cx="0" cy="36" r="6" />
    </g>
  </g>
  <circle cx="62" cy="58" r="16" fill="#D8F3DC" opacity="0.6" />
  <circle cx="82" cy="48" r="10" fill="#D8F3DC" opacity="0.4" />
</svg>
