<svg xmlns="http://www.w3.org/2000/svg" viewBox="0 0 320 240">
  <rect width="320" height="240" fill="#6C7AE0" rx="28" />
  <g transform="translate(160 140)">
    <path d="M-90-32c0-48 34-86 90-86s90 38 90 86v70c0 42-42 70-90 70s-90-28-90-70v-70z" fill="#F5F0FF" />
    <path d="M-96-74l32-44 26 42" fill="#F5F0FF" />
    <path d="M96-74l-32-44-26 42" fill="#F5F0FF" />
    <g fill="#E5D7FF">
      <ellipse cx="-58" cy="-12" rx="26" ry="30" />
      <ellipse cx="58" cy="-12" rx="26" ry="30" />
    </g>
    <g fill="#3C3273">
      <circle cx="-40" cy="-12" r="8" />
      <circle cx="40" cy="-12" r="8" />
    </g>
    <path d="M-16 8l16 12 16-12" fill="none" stroke="#3C3273" stroke-width="6" stroke-linecap="round" stroke-linejoin="round" />
    <g stroke="#3C3273" stroke-width="5" stroke-linecap="round">
      <path d="M-68 12h34" />
      <path d="M-70 20h38" />
      <path d="M68 12h-34" />
      <path d="M70 20h-38" />
    </g>
    <circle cx="0" cy="30" r="28" fill="#FFACC5" opacity="0.6" />
    <path d="M-28 40c18 14 38 14 56 0" fill="none" stroke="#3C3273" stroke-width="6" stroke-linecap="round" />
    <g fill="#3C3273">
      <circle cx="-16" cy="22" r="4" />
      <circle cx="16" cy="22" r="4" />
    </g>
  </g>
  <circle cx="260" cy="52" r="14" fill="#FFFFFF" opacity="0.5" />
  <circle cx="244" cy="44" r="8" fill="#FFFFFF" opacity="0.35" />
</svg>
