<svg xmlns="http://www.w3.org/2000/svg" viewBox="0 0 320 240">
  <rect width="320" height="240" fill="#E76F51" rx="28" />
  <g transform="translate(160 140)">
    <circle cx="0" cy="0" r="86" fill="#A44A34" />
    <circle cx="0" cy="12" r="64" fill="#F6D6BF" />
    <g fill="#A44A34">
      <circle cx="-62" cy="-44" r="30" />
      <circle cx="62" cy="-44" r="30" />
    </g>
    <g fill="#FFF" opacity="0.9">
      <ellipse cx="-24" cy="-10" rx="14" ry="18" />
      <ellipse cx="24" cy="-10" rx="14" ry="18" />
    </g>
    <circle cx="-24" cy="-10" r="7" fill="#40251C" />
    <circle cx="24" cy="-10" r="7" fill="#40251C" />
    <ellipse cx="0" cy="20" rx="28" ry="24" fill="#F0B7A9" />
    <path d="M-20 24c12 10 28 10 40 0" fill="none" stroke="#40251C" stroke-width="6" stroke-linecap="round" />
    <circle cx="-58" cy="30" r="18" fill="#A44A34" />
    <circle cx="58" cy="30" r="18" fill="#A44A34" />
    <path d="M-64 56c24 24 104 24 128 0" fill="none" stroke="#A44A34" stroke-width="10" stroke-linecap="round" />
  </g>
  <circle cx="82" cy="64" r="14" fill="#FDEAD3" opacity="0.6" />
  <circle cx="96" cy="52" r="8" fill="#FDEAD3" opacity="0.4" />
</svg>
