<svg xmlns="http://www.w3.org/2000/svg" viewBox="0 0 320 240">
  <rect width="320" height="240" fill="#2A9D8F" rx="28" />
  <g transform="translate(160 150)">
    <path d="M-110-40c30-30 70-46 110-46s80 16 110 46v70c0 36-32 66-110 66s-110-30-110-66v-70z" fill="#F7F2EE" />
    <path d="M-90-30c16-18 42-34 90-34s74 16 90 34v54c0 24-26 44-90 44s-90-20-90-44v-54z" fill="#F0E0DA" />
    <g fill="#E09C5A">
      <path d="M-84-80c-16 0-28 18-18 32l20 30 18-14-20-48z" />
      <path d="M84-80c16 0 28 18 18 32l-20 30-18-14 20-48z" />
    </g>
    <ellipse cx="-44" cy="-22" rx="18" ry="22" fill="#3F3D56" />
    <ellipse cx="44" cy="-22" rx="18" ry="22" fill="#3F3D56" />
    <ellipse cx="0" cy="36" rx="72" ry="50" fill="#FCD4DC" />
    <g fill="#3F3D56">
      <circle cx="-26" cy="18" r="6" />
      <circle cx="26" cy="18" r="6" />
      <path d="M-22 42c12 10 34 10 46 0" fill="none" stroke="#3F3D56" stroke-width="6" stroke-linecap="round" />
    </g>
    <g fill="#3F3D56">
      <ellipse cx="-64" cy="0" rx="12" ry="20" />
      <ellipse cx="64" cy="0" rx="12" ry="20" />
    </g>
    <path d="M-34-74c-10-30 12-54 34-54s44 24 34 54c-6 18-22 22-34 22s-28-4-34-22z" fill="#F7F2EE" />
    <g transform="translate(0 -66)" fill="#3F3D56">
      <circle cx="-16" cy="0" r="6" />
      <circle cx="16" cy="0" r="6" />
      <path d="M-10 14c6 4 14 4 20 0" fill="none" stroke="#3F3D56" stroke-width="4" stroke-linecap="round" />
    </g>
  </g>
  <circle cx="54" cy="54" r="16" fill="#FDF6E4" opacity="0.65" />
  <circle cx="72" cy="46" r="10" fill="#FDF6E4" opacity="0.45" />
</svg>
