<svg xmlns="http://www.w3.org/2000/svg" viewBox="0 0 320 240">
  <rect width="320" height="240" fill="#2A9D8F" rx="28" />
  <g transform="translate(160 138)">
    <ellipse cx="0" cy="70" rx="96" ry="60" fill="#F7F2EE" />
    <path d="M-92 68c-22 12-34 32-20 52 14 20 44 26 74 10" fill="#3F3D56" opacity="0.2" />
    <path d="M92 68c22 12 34 32 20 52-14 20-44 26-74 10" fill="#3F3D56" opacity="0.2" />
    <g fill="#F7F2EE">
      <path d="M-74-14c-48-10-78-68-24-90 32-12 64 20 74 46" />
      <path d="M74-14c48-10 78-68 24-90-32-12-64 20-74 46" />
      <ellipse cx="0" cy="-18" rx="88" ry="72" />
    </g>
    <g fill="#E09C5A">
      <path d="M-96-62c-20-30 12-64 44-44l28 18-20 42z" />
      <path d="M96-62c20-30-12-64-44-44l-28 18 20 42z" />
    </g>
    <g fill="#3F3D56">
      <path d="M-44-32c-24-14-52 4-40 28 8 18 26 26 40 30l12-42z" />
      <path d="M44-32c24-14 52 4 40 28-8 18-26 26-40 30l-12-42z" />
      <circle cx="-32" cy="-10" r="10" />
      <circle cx="32" cy="-10" r="10" />
      <path d="M-22 8c10 12 34 12 44 0" fill="none" stroke="#3F3D56" stroke-width="6" stroke-linecap="round" />
      <path d="M-76 32c18 32 48 46 76 46s58-14 76-46" fill="none" stroke="#3F3D56" stroke-width="6" stroke-linecap="round" />
    </g>
    <g>
      <ellipse cx="0" cy="40" rx="68" ry="50" fill="#FCD4DC" />
      <ellipse cx="-22" cy="36" rx="14" ry="18" fill="#3F3D56" />
      <ellipse cx="22" cy="36" rx="14" ry="18" fill="#3F3D56" />
      <path d="M-24 56c12 10 36 10 48 0" fill="none" stroke="#3F3D56" stroke-width="6" stroke-linecap="round" />
    </g>
    <g fill="#3F3D56">
      <path d="M-12 0c-28-14-58 20-38 42 18 20 42 12 62-2z" />
      <path d="M12 0c28-14 58 20 38 42-18 20-42 12-62-2z" />
    </g>
  </g>
  <circle cx="54" cy="54" r="16" fill="#FDF6E4" opacity="0.65" />
  <circle cx="72" cy="46" r="10" fill="#FDF6E4" opacity="0.45" />
</svg>
